<svg width="136" height="60" viewBox="0 0 136 60" fill="none" xmlns="http://www.w3.org/2000/svg">
<path d="M44.375 10H15.625C13.3044 10 11.0788 10.9219 9.43782 12.5628C7.79687 14.2038 6.875 16.4294 6.875 18.75V41.25C6.875 43.5706 7.79687 45.7962 9.43782 47.4372C11.0788 49.0781 13.3044 50 15.625 50H44.375C46.6956 50 48.9212 49.0781 50.5622 47.4372C52.2031 45.7962 53.125 43.5706 53.125 41.25V18.75C53.125 16.4294 52.2031 14.2038 50.5622 12.5628C48.9212 10.9219 46.6956 10 44.375 10Z" stroke="black" stroke-width="1.5" stroke-linecap="round" stroke-linejoin="round"/>
<path d="M42.75 17.375H17.25C16.856 17.375 16.4659 17.4526 16.1019 17.6034C15.738 17.7541 15.4073 17.9751 15.1287 18.2537C14.8501 18.5323 14.6291 18.863 14.4784 19.2269C14.3276 19.5909 14.25 19.981 14.25 20.375V21.5825C14.25 21.9765 14.3276 22.3666 14.4784 22.7306C14.6291 23.0945 14.8501 23.4252 15.1287 23.7038C15.4073 23.9824 15.738 24.2034 16.1019 24.3541C16.4659 24.5049 16.856 24.5825 17.25 24.5825H42.75C43.5457 24.5825 44.3087 24.2664 44.8713 23.7038C45.4339 23.1412 45.75 22.3782 45.75 21.5825V20.375C45.75 19.5794 45.4339 18.8163 44.8713 18.2537C44.3087 17.6911 43.5457 17.375 42.75 17.375ZM42.75 31.475H35.5C34.7044 31.475 33.9413 31.7911 33.3787 32.3537C32.8161 32.9163 32.5 33.6794 32.5 34.475V39.625C32.5 40.4207 32.8161 41.1837 33.3787 41.7463C33.9413 42.3089 34.7044 42.625 35.5 42.625H42.75C43.5457 42.625 44.3087 42.3089 44.8713 41.7463C45.4339 41.1837 45.75 40.4207 45.75 39.625V34.475C45.75 33.6794 45.4339 32.9163 44.8713 32.3537C44.3087 31.7911 43.5457 31.475 42.75 31.475ZM22.5 31.475H17.25C16.856 31.475 16.4659 31.5526 16.1019 31.7034C15.738 31.8541 15.4073 32.0751 15.1287 32.3537C14.8501 32.6323 14.6291 32.963 14.4784 33.327C14.3276 33.6909 14.25 34.081 14.25 34.475V39.625C14.25 40.019 14.3276 40.4091 14.4784 40.7731C14.6291 41.137 14.8501 41.4677 15.1287 41.7463C15.4073 42.0249 15.738 42.2459 16.1019 42.3966C16.4659 42.5474 16.856 42.625 17.25 42.625H22.5C23.2957 42.625 24.0587 42.3089 24.6213 41.7463C25.1839 41.1837 25.5 40.4207 25.5 39.625V34.475C25.5 33.6794 25.1839 32.9163 24.6213 32.3537C24.0587 31.7911 23.2957 31.475 22.5 31.475Z" fill="black"/>
<path d="M60.586 29.858C60.274 29.6847 60.1007 29.494 60.066 29.286C60.0487 29.078 60.17 28.714 60.43 28.194C60.69 27.674 61.0973 26.868 61.652 25.776C62.068 24.996 62.3453 24.3893 62.484 23.956C62.64 23.5053 62.7267 23.1847 62.744 22.994C62.7613 22.8033 62.77 22.682 62.77 22.63C62.7353 22.474 62.7527 22.3527 62.822 22.266C62.8913 22.162 63.004 22.0753 63.16 22.006C63.2467 21.9193 63.446 21.7633 63.758 21.538C64.07 21.3127 64.3127 21.044 64.486 20.732C64.642 20.368 64.8153 19.9953 65.006 19.614C65.214 19.2327 65.4827 18.756 65.812 18.184C66.1413 17.5947 66.5833 16.832 67.138 15.896C67.4847 15.2893 67.892 14.6047 68.36 13.842C68.8453 13.0793 69.322 12.386 69.79 11.762C69.9807 11.5193 70.18 11.3287 70.388 11.19C70.596 11.0513 70.778 10.982 70.934 10.982C71.3153 10.982 71.6967 11.086 72.078 11.294C72.4593 11.4847 72.7973 11.7273 73.092 12.022C73.3867 12.3167 73.586 12.594 73.69 12.854C73.7767 12.9927 73.8113 13.2873 73.794 13.738C73.7767 14.1887 73.742 14.7347 73.69 15.376C73.638 16.0173 73.5773 16.702 73.508 17.43C73.456 18.1407 73.378 18.9813 73.274 19.952C73.17 20.9227 73.066 21.9367 72.962 22.994C72.8753 24.0513 72.806 25.074 72.754 26.062C72.702 27.0327 72.702 27.882 72.754 28.61C72.7713 28.766 72.7713 28.9133 72.754 29.052C72.7367 29.1907 72.728 29.3033 72.728 29.39C72.624 29.494 72.3987 29.5373 72.052 29.52C71.7053 29.52 71.3673 29.468 71.038 29.364C70.7087 29.26 70.5267 29.13 70.492 28.974C70.44 28.922 70.4053 28.8787 70.388 28.844C70.3707 28.8093 70.3707 28.6447 70.388 28.35C70.4053 28.038 70.4313 27.4747 70.466 26.66L70.596 22.682L70.258 22.708C70.102 22.708 69.816 22.7253 69.4 22.76C69.0013 22.7947 68.5593 22.8467 68.074 22.916C67.606 22.968 67.1727 23.0287 66.774 23.098C66.3753 23.15 66.098 23.202 65.942 23.254C65.786 23.254 65.5953 23.358 65.37 23.566C65.162 23.774 64.9627 24.0427 64.772 24.372C64.7027 24.6147 64.5727 24.8747 64.382 25.152C64.2087 25.412 64.122 25.5853 64.122 25.672C64.0007 25.7587 63.8967 25.8627 63.81 25.984C63.7407 26.1053 63.706 26.166 63.706 26.166C63.706 26.27 63.628 26.53 63.472 26.946C63.316 27.3447 63.1253 27.7953 62.9 28.298C62.6747 28.7833 62.4407 29.208 62.198 29.572L61.496 30.56L60.586 29.858ZM66.8 20.914C66.8 20.914 66.8953 20.8967 67.086 20.862C67.2767 20.8273 67.502 20.7927 67.762 20.758C68.0393 20.706 68.282 20.68 68.49 20.68C68.8887 20.576 69.218 20.498 69.478 20.446C69.7553 20.394 69.9807 20.368 70.154 20.368C70.3273 20.3507 70.466 20.368 70.57 20.42C70.6393 20.5067 70.7 20.5587 70.752 20.576C70.8213 20.5933 70.856 20.602 70.856 20.602C70.8733 20.5673 70.908 20.3853 70.96 20.056C71.012 19.7267 71.0727 19.3193 71.142 18.834C71.2113 18.3487 71.2807 17.846 71.35 17.326C71.4193 16.7887 71.48 16.2947 71.532 15.844C71.584 15.376 71.6187 15.012 71.636 14.752C71.6533 14.4227 71.6447 14.128 71.61 13.868C71.5753 13.5907 71.558 13.452 71.558 13.452C71.454 13.452 71.2547 13.6427 70.96 14.024C70.6827 14.388 70.3533 14.882 69.972 15.506C69.608 16.1127 69.244 16.7713 68.88 17.482C68.7067 17.8113 68.542 18.0713 68.386 18.262C68.2473 18.4527 68.1347 18.548 68.048 18.548C68.0133 18.5827 67.918 18.7213 67.762 18.964C67.6233 19.1893 67.4673 19.4493 67.294 19.744C67.138 20.0213 66.9993 20.2813 66.878 20.524C66.774 20.7493 66.748 20.8793 66.8 20.914ZM86.9953 28.376C86.874 28.3413 86.6833 28.2287 86.4233 28.038C86.1633 27.8473 85.9293 27.5613 85.7213 27.18C85.5306 26.7987 85.444 26.3047 85.4613 25.698C85.4786 25.178 85.5133 24.814 85.5653 24.606C85.6346 24.3807 85.6086 24.2593 85.4873 24.242C85.4006 24.2247 85.2273 24.3027 84.9673 24.476C84.7073 24.6493 84.3693 24.9267 83.9533 25.308C83.5373 25.6893 83.0346 26.192 82.4453 26.816C82.2373 26.9893 82.0033 27.206 81.7433 27.466C81.5006 27.7087 81.2493 27.8907 80.9893 28.012C80.7466 28.1333 80.53 28.1073 80.3393 27.934L80.0793 27.7C79.958 27.596 79.854 27.4573 79.7673 27.284C79.6806 27.1107 79.6546 26.9633 79.6893 26.842L80.4173 24.814C80.6253 24.3633 80.764 24.034 80.8333 23.826C80.92 23.618 80.9546 23.488 80.9373 23.436C80.9373 23.384 80.894 23.3667 80.8073 23.384C80.7033 23.4013 80.556 23.4967 80.3653 23.67C80.1746 23.826 80.0446 23.956 79.9753 24.06C79.906 24.06 79.8106 24.1293 79.6893 24.268C79.5853 24.4067 79.4813 24.528 79.3773 24.632C79.2733 24.736 79.0913 24.9353 78.8313 25.23C78.5713 25.5073 78.294 25.802 77.9993 26.114C77.774 26.322 77.514 26.5993 77.2193 26.946C76.9246 27.2927 76.6646 27.6047 76.4393 27.882C76.214 28.1593 76.0753 28.298 76.0233 28.298C75.7113 28.2807 75.4253 28.1767 75.1653 27.986C74.9226 27.7953 74.758 27.5613 74.6713 27.284C74.5673 27.0933 74.5586 26.7467 74.6453 26.244C74.732 25.724 74.8966 24.9007 75.1393 23.774C75.2086 23.514 75.2693 23.2887 75.3213 23.098C75.3906 22.9073 75.46 22.7167 75.5293 22.526C75.5986 22.3353 75.6766 22.1187 75.7633 21.876C75.8673 21.6333 75.9973 21.3387 76.1533 20.992C76.24 20.7493 76.2746 20.524 76.2573 20.316C76.24 20.0907 76.2226 19.9087 76.2053 19.77C76.2053 19.51 76.2833 19.302 76.4393 19.146C76.6126 18.99 76.8033 18.886 77.0113 18.834C77.2193 18.7647 77.384 18.7473 77.5053 18.782C77.9906 18.834 78.32 19.0073 78.4933 19.302C78.6666 19.5967 78.762 19.8827 78.7793 20.16C78.7966 20.42 78.762 20.654 78.6753 20.862C78.5886 21.07 78.5193 21.2433 78.4673 21.382L78.1813 22.084C78.008 22.4827 77.878 22.7773 77.7913 22.968C77.722 23.1413 77.6786 23.2627 77.6613 23.332C77.6613 23.384 77.6613 23.436 77.6613 23.488C77.6786 23.54 77.7566 23.514 77.8953 23.41C78.034 23.306 78.1986 23.1673 78.3893 22.994C78.5973 22.8033 78.788 22.6387 78.9613 22.5C79.2733 22.24 79.6026 21.98 79.9493 21.72C80.3133 21.4427 80.6686 21.2 81.0153 20.992C81.362 20.784 81.648 20.6453 81.8733 20.576C82.168 20.628 82.4366 20.7753 82.6793 21.018C82.9393 21.2607 83.104 21.4687 83.1733 21.642C83.26 21.902 83.2686 22.136 83.1993 22.344C83.1473 22.552 83.104 22.7427 83.0693 22.916C83.052 22.9853 83.0173 23.1153 82.9653 23.306C82.9133 23.4967 82.8613 23.6787 82.8093 23.852C82.7573 24.008 82.7313 24.086 82.7313 24.086C82.7313 24.086 82.7833 24.034 82.8873 23.93C82.9913 23.826 83.13 23.7047 83.3033 23.566C83.4766 23.41 83.65 23.2713 83.8233 23.15C84.69 22.4913 85.3746 22.0753 85.8773 21.902C86.3973 21.7113 86.8393 21.8587 87.2033 22.344C87.4113 22.5347 87.5413 22.7947 87.5933 23.124C87.6626 23.4533 87.6973 23.8953 87.6973 24.45C87.7146 24.6753 87.732 24.9267 87.7493 25.204C87.784 25.4813 87.8186 25.724 87.8533 25.932C87.9053 26.14 87.9486 26.27 87.9833 26.322C88.0353 26.3913 88.1306 26.4607 88.2693 26.53C88.408 26.582 88.538 26.6253 88.6593 26.66C88.902 26.7813 89.032 27.0067 89.0493 27.336C89.084 27.648 88.9626 27.8907 88.6853 28.064C88.4253 28.22 88.148 28.3153 87.8533 28.35C87.576 28.3847 87.29 28.3933 86.9953 28.376ZM90.306 28.454C90.2367 28.3153 90.0807 28.1767 89.838 28.038C89.6127 27.8993 89.5 27.7953 89.5 27.726C89.5 27.6567 89.4567 27.5527 89.37 27.414C89.3007 27.258 89.2314 27.1453 89.162 27.076C89.0754 26.972 89.1014 26.7207 89.24 26.322C89.3787 25.906 89.5867 25.4033 89.864 24.814C90.1414 24.2247 90.4447 23.6267 90.774 23.02C90.9127 22.8813 91.0514 22.6993 91.19 22.474C91.3287 22.2487 91.4327 22.1013 91.502 22.032C91.502 21.9627 91.528 21.902 91.58 21.85C91.632 21.7807 91.6927 21.746 91.762 21.746L91.97 21.33C92.0047 21.2607 92.1087 21.122 92.282 20.914C92.4727 20.706 92.698 20.4807 92.958 20.238C93.218 19.978 93.478 19.7353 93.738 19.51C94.0154 19.2847 94.2407 19.12 94.414 19.016C94.778 18.7733 95.1507 18.6607 95.532 18.678C95.9307 18.6953 96.2687 18.8167 96.546 19.042C96.598 19.094 96.7107 19.198 96.884 19.354C97.0747 19.51 97.2827 19.6833 97.508 19.874C97.7507 20.0647 97.9587 20.238 98.132 20.394L99.094 21.252L98.652 22.552C98.4267 23.2453 98.366 23.852 98.47 24.372C98.574 24.892 98.7387 25.3427 98.964 25.724C99.0507 25.9147 99.1634 26.062 99.302 26.166C99.458 26.27 99.6574 26.3393 99.9 26.374C100.039 26.3913 100.169 26.4433 100.29 26.53C100.411 26.6167 100.472 26.7553 100.472 26.946C100.472 27.362 100.394 27.6653 100.238 27.856C100.099 28.0293 99.9434 28.1333 99.77 28.168C99.198 28.2373 98.652 28.1767 98.132 27.986C97.612 27.7953 97.144 27.3013 96.728 26.504C96.6587 26.4 96.5634 26.2093 96.442 25.932C96.338 25.6373 96.2774 25.4467 96.26 25.36C96.1907 25.4467 96.0954 25.5593 95.974 25.698C95.87 25.8193 95.766 25.932 95.662 26.036C94.4314 27.284 93.374 28.0987 92.49 28.48C91.6234 28.844 90.8954 28.8353 90.306 28.454ZM91.736 26.296C91.8574 26.3133 92.048 26.2527 92.308 26.114C92.568 25.958 92.9147 25.7067 93.348 25.36C93.9374 24.8573 94.4227 24.4413 94.804 24.112C95.1854 23.7827 95.558 23.358 95.922 22.838L96.494 21.902C96.3207 21.5033 96.1647 21.2433 96.026 21.122C95.8874 21.0007 95.7487 20.94 95.61 20.94C95.3847 20.94 95.116 21.0873 94.804 21.382C94.492 21.6593 94.1367 22.0753 93.738 22.63C93.3567 23.1673 92.9234 23.8433 92.438 24.658C92.2127 25.0393 92.0394 25.412 91.918 25.776C91.7967 26.1227 91.736 26.296 91.736 26.296ZM102.014 28.558C101.702 28.3327 101.442 28.0467 101.234 27.7C101.043 27.3533 100.93 26.9547 100.896 26.504C100.844 26.2093 100.948 25.8367 101.208 25.386C101.485 24.918 101.866 24.4327 102.352 23.93C102.854 23.41 103.409 22.9247 104.016 22.474C104.744 22.006 105.255 21.6853 105.55 21.512C105.862 21.3387 106.035 21.226 106.07 21.174C106.122 21.122 106.113 21.0527 106.044 20.966C105.992 20.8967 105.862 20.862 105.654 20.862C105.463 20.8447 105.203 20.8187 104.874 20.784C104.666 20.8013 104.501 20.81 104.38 20.81C104.276 20.81 104.137 20.8187 103.964 20.836C103.79 20.8533 103.496 20.9053 103.08 20.992C102.768 21.0093 102.516 21.0093 102.326 20.992C102.152 20.9573 102.005 20.8793 101.884 20.758C101.797 20.602 101.719 20.4113 101.65 20.186C101.598 19.9607 101.615 19.822 101.702 19.77C101.736 19.5793 101.875 19.3887 102.118 19.198C102.378 18.99 102.828 18.8513 103.47 18.782C103.608 18.7993 103.877 18.808 104.276 18.808C104.692 18.808 105.151 18.8427 105.654 18.912C106.382 18.9987 106.945 19.0853 107.344 19.172C107.742 19.2413 108.028 19.3367 108.202 19.458C108.392 19.5793 108.514 19.7527 108.566 19.978C108.67 20.238 108.678 20.5327 108.592 20.862C108.522 21.1913 108.314 21.5467 107.968 21.928C107.638 22.3093 107.127 22.7167 106.434 23.15C105.966 23.4793 105.584 23.7567 105.29 23.982C104.995 24.2073 104.744 24.424 104.536 24.632C104.345 24.84 104.128 25.0827 103.886 25.36C103.504 25.828 103.236 26.1313 103.08 26.27C102.941 26.3913 103.002 26.4953 103.262 26.582C103.331 26.6513 103.452 26.6947 103.626 26.712C103.799 26.712 103.972 26.7033 104.146 26.686C104.284 26.686 104.449 26.686 104.64 26.686C104.848 26.6687 104.978 26.6773 105.03 26.712C105.168 26.7813 105.35 26.7813 105.576 26.712C105.818 26.6427 106.07 26.5733 106.33 26.504C106.434 26.4867 106.598 26.4693 106.824 26.452C107.049 26.4347 107.274 26.4173 107.5 26.4C107.725 26.3653 107.89 26.3307 107.994 26.296C108.184 26.2267 108.401 26.2007 108.644 26.218C108.904 26.218 109.068 26.218 109.138 26.218C109.242 26.3047 109.302 26.4693 109.32 26.712C109.337 26.9547 109.285 27.1973 109.164 27.44C109.042 27.6827 108.826 27.8387 108.514 27.908C108.011 28.0813 107.664 28.2027 107.474 28.272C107.3 28.324 107.144 28.3413 107.006 28.324C106.676 28.4107 106.269 28.4713 105.784 28.506C105.298 28.5407 104.804 28.5667 104.302 28.584C103.799 28.584 103.34 28.584 102.924 28.584C102.508 28.5667 102.204 28.558 102.014 28.558ZM111.333 28.974C110.917 28.974 110.553 28.7573 110.241 28.324C109.946 27.8733 109.764 27.336 109.695 26.712C109.712 26.5733 109.729 26.374 109.747 26.114C109.781 25.854 109.816 25.5853 109.851 25.308C109.92 24.9787 110.015 24.554 110.137 24.034C110.258 23.514 110.388 22.994 110.527 22.474C110.665 21.9367 110.787 21.4773 110.891 21.096C110.995 20.6973 111.055 20.4633 111.073 20.394C111.177 20.1513 111.411 20.0907 111.775 20.212C112.139 20.3333 112.451 20.5933 112.711 20.992C112.815 21.1307 112.875 21.2953 112.893 21.486C112.927 21.6767 112.901 21.954 112.815 22.318C112.745 22.682 112.607 23.2193 112.399 23.93C112.208 24.6233 112.061 25.1867 111.957 25.62C111.87 26.036 111.835 26.478 111.853 26.946C111.783 27.7433 111.714 28.2893 111.645 28.584C111.575 28.8613 111.471 28.9913 111.333 28.974ZM113.725 18.184C113.655 18.236 113.586 18.262 113.517 18.262C113.465 18.2447 113.369 18.1927 113.231 18.106C113.109 18.0887 112.953 18.0107 112.763 17.872C112.589 17.716 112.433 17.56 112.295 17.404C112.173 17.248 112.113 17.1527 112.113 17.118C112.095 16.9447 112.104 16.6673 112.139 16.286C112.191 15.9047 112.286 15.5493 112.425 15.22C112.581 14.8733 112.789 14.6913 113.049 14.674C113.118 14.674 113.265 14.7087 113.491 14.778C113.733 14.8473 113.985 14.934 114.245 15.038C114.383 15.298 114.513 15.636 114.635 16.052C114.756 16.468 114.765 16.8753 114.661 17.274C114.574 17.6553 114.262 17.9587 113.725 18.184ZM115.942 28.116C115.873 28.116 115.708 28.0553 115.448 27.934C115.188 27.7953 115.024 27.6913 114.954 27.622C114.833 27.4833 114.755 27.336 114.72 27.18C114.686 27.0067 114.668 26.6773 114.668 26.192C114.668 25.6373 114.781 25.0133 115.006 24.32C115.232 23.6093 115.613 22.6647 116.15 21.486L117.216 19.328C117.303 19.2067 117.381 19.1027 117.45 19.016C117.52 18.912 117.598 18.8167 117.684 18.73C117.719 18.73 117.762 18.73 117.814 18.73C117.884 18.73 117.936 18.7387 117.97 18.756C118.126 18.7733 118.369 18.8687 118.698 19.042C119.045 19.2153 119.253 19.4753 119.322 19.822C119.322 20.0473 119.288 20.316 119.218 20.628C119.149 20.9227 118.941 21.3127 118.594 21.798C118.456 21.9713 118.317 22.2227 118.178 22.552C118.057 22.8813 117.944 23.1933 117.84 23.488C117.823 23.5227 117.771 23.6093 117.684 23.748C117.615 23.8693 117.546 23.9993 117.476 24.138C117.407 24.2593 117.372 24.3373 117.372 24.372L117.268 24.606L118.386 23.514C119.166 22.734 119.825 22.1793 120.362 21.85C120.9 21.5207 121.35 21.382 121.714 21.434C122.096 21.486 122.399 21.7027 122.624 22.084C122.746 22.2573 122.832 22.448 122.884 22.656C122.936 22.8467 122.971 23.072 122.988 23.332C123.006 23.592 122.997 23.9213 122.962 24.32V25.802C123.292 25.7153 123.543 25.646 123.716 25.594C123.89 25.5247 124.063 25.464 124.236 25.412C124.375 25.3773 124.514 25.3427 124.652 25.308C124.808 25.2733 124.999 25.2473 125.224 25.23C125.207 25.4553 125.112 25.7327 124.938 26.062C124.765 26.3913 124.548 26.7207 124.288 27.05C124.046 27.3793 123.777 27.6567 123.482 27.882C123.205 28.1073 122.945 28.22 122.702 28.22C122.477 28.22 122.217 28.1507 121.922 28.012C121.628 27.856 121.376 27.5613 121.168 27.128C121.099 26.9027 121.03 26.6427 120.96 26.348C120.891 26.0533 120.856 25.7413 120.856 25.412V24.268C120.856 24.164 120.848 24.0947 120.83 24.06C120.83 24.008 120.822 23.982 120.804 23.982C120.735 23.982 120.51 24.164 120.128 24.528C119.764 24.892 119.392 25.2733 119.01 25.672C118.213 26.504 117.546 27.1193 117.008 27.518C116.488 27.9167 116.133 28.116 115.942 28.116ZM129.488 34.2C129.002 34.3907 128.491 34.356 127.954 34.096C127.434 33.8533 126.983 33.4633 126.602 32.926C126.532 32.822 126.428 32.6313 126.29 32.354C126.151 32.094 126.012 31.808 125.874 31.496C125.752 31.184 125.657 30.9153 125.588 30.69C125.536 30.4647 125.536 30.3347 125.588 30.3C125.657 30.1093 125.813 29.9967 126.056 29.962C126.298 29.9273 126.541 29.936 126.784 29.988C127.026 30.0573 127.165 30.144 127.2 30.248C127.252 30.3693 127.304 30.4907 127.356 30.612C127.408 30.7507 127.468 30.872 127.538 30.976C127.624 31.0973 127.702 31.2013 127.772 31.288C127.962 31.5827 128.17 31.782 128.396 31.886C128.621 32.0073 128.794 32.0247 128.916 31.938C129.21 31.7127 129.427 31.444 129.566 31.132C129.722 30.8373 129.921 30.3087 130.164 29.546C130.354 28.9047 130.519 28.35 130.658 27.882C130.796 27.414 130.944 26.9807 131.1 26.582C131.152 26.374 131.212 26.2007 131.282 26.062C131.368 25.906 131.446 25.7933 131.516 25.724H131.672C131.29 25.9667 130.97 26.2093 130.71 26.452C130.45 26.6947 130.094 26.9113 129.644 27.102C129.54 27.2233 129.28 27.3013 128.864 27.336C128.465 27.3533 128.075 27.3013 127.694 27.18C127.451 27.0413 127.252 26.9027 127.096 26.764C126.957 26.608 126.836 26.4347 126.732 26.244C126.645 26.0533 126.55 25.828 126.446 25.568C126.324 25.308 126.307 24.8833 126.394 24.294C126.48 23.7047 126.636 23.1153 126.862 22.526C127.07 22.0927 127.373 21.6247 127.772 21.122C128.17 20.6193 128.595 20.1687 129.046 19.77C129.496 19.354 129.904 19.094 130.268 18.99C130.406 18.9207 130.649 18.8427 130.996 18.756C131.342 18.652 131.672 18.6433 131.984 18.73C132.278 18.7647 132.504 18.834 132.66 18.938C132.816 19.0247 133.067 19.2153 133.414 19.51C133.639 19.7353 133.916 20.03 134.246 20.394C134.575 20.7407 134.783 21.0353 134.87 21.278C134.991 21.538 135.017 21.824 134.948 22.136C134.878 22.4307 134.757 22.6907 134.584 22.916C134.428 23.1413 134.263 23.3667 134.09 23.592C133.916 23.8173 133.786 24.1293 133.7 24.528C133.613 25.048 133.448 25.6373 133.206 26.296C132.963 26.9373 132.772 27.5353 132.634 28.09L132.218 29.702C131.784 31.1753 131.308 32.2413 130.788 32.9C130.268 33.576 129.834 34.0093 129.488 34.2ZM128.942 25.256C129.288 25.2387 129.583 25.204 129.826 25.152C130.086 25.0827 130.328 24.944 130.554 24.736C130.779 24.5107 131.039 24.1727 131.334 23.722C131.628 23.306 131.836 22.9247 131.958 22.578C132.079 22.2313 132.122 21.8413 132.088 21.408C132.07 21.1307 131.992 20.9487 131.854 20.862C131.715 20.7753 131.533 20.7493 131.308 20.784C130.978 20.836 130.684 20.9747 130.424 21.2C130.164 21.408 129.86 21.7373 129.514 22.188C129.254 22.5347 129.037 22.9507 128.864 23.436C128.69 23.956 128.612 24.372 128.63 24.684C128.664 24.996 128.768 25.1867 128.942 25.256Z" fill="black"/>
<path d="M79.248 46.152C78.7893 45.8533 78.5173 45.5547 78.432 45.256C78.3573 44.9573 78.464 44.7173 78.752 44.536C78.816 44.4933 78.9387 44.488 79.12 44.52C79.312 44.552 79.456 44.616 79.552 44.712C79.7653 44.904 80.0053 45.0213 80.272 45.064C80.5493 45.1173 80.8853 45.0907 81.28 44.984C81.728 44.8453 82.0693 44.6747 82.304 44.472C82.5493 44.2587 82.8213 43.9707 83.12 43.608C83.344 43.32 83.4987 43.0373 83.584 42.76C83.68 42.4827 83.7227 42.232 83.712 42.008C83.712 41.7733 83.6587 41.5973 83.552 41.48C83.2853 41.1067 82.9547 40.8507 82.56 40.712C82.1653 40.5627 81.648 40.5733 81.008 40.744C80.9333 40.7547 80.8213 40.776 80.672 40.808C80.5227 40.84 80.3893 40.872 80.272 40.904C80.1547 40.9253 80.0907 40.936 80.08 40.936C80.0053 40.9573 79.9467 40.968 79.904 40.968C79.8613 40.968 79.808 41.0213 79.744 41.128C79.6907 41.224 79.6053 41.432 79.488 41.752C79.3707 42.0613 79.1947 42.5413 78.96 43.192C78.736 43.8427 78.544 44.3067 78.384 44.584C78.2347 44.8507 78.1013 44.9733 77.984 44.952C77.8667 44.92 77.7333 44.8027 77.584 44.6C77.4987 44.4507 77.4027 44.2853 77.296 44.104C77.2 43.9227 77.2053 43.736 77.312 43.544C77.3653 43.448 77.408 43.3627 77.44 43.288C77.472 43.2027 77.5147 43.0587 77.568 42.856C77.6213 42.696 77.7227 42.4187 77.872 42.024C78.032 41.6187 78.2187 41.1493 78.432 40.616C78.6453 40.072 78.8693 39.512 79.104 38.936C79.3387 38.36 79.5627 37.816 79.776 37.304C80 36.792 80.1867 36.36 80.336 36.008C80.4853 35.6773 80.576 35.4373 80.608 35.288C80.64 35.1387 80.6293 35.0587 80.576 35.048C80.576 34.9947 80.56 34.9467 80.528 34.904C80.496 34.8507 80.4853 34.8027 80.496 34.76C80.496 34.7173 80.5867 34.6587 80.768 34.584C80.96 34.5093 81.1627 34.44 81.376 34.376C81.5893 34.312 81.744 34.2907 81.84 34.312C81.8933 34.312 81.9573 34.312 82.032 34.312C82.1067 34.3013 82.144 34.2747 82.144 34.232C82.176 34.232 82.2773 34.2213 82.448 34.2C82.6187 34.1787 82.8053 34.1787 83.008 34.2C83.7227 34.264 84.3093 34.472 84.768 34.824C85.2267 35.1653 85.4507 35.7147 85.44 36.472C85.4293 36.6533 85.3547 36.888 85.216 37.176C85.0773 37.464 84.9013 37.752 84.688 38.04C84.4853 38.328 84.2667 38.5787 84.032 38.792C83.8933 38.9093 83.744 39.032 83.584 39.16C83.4347 39.2773 83.3013 39.3787 83.184 39.464C83.0773 39.5387 83.024 39.576 83.024 39.576C83.024 39.576 83.0667 39.592 83.152 39.624C83.2373 39.656 83.328 39.688 83.424 39.72C83.9147 39.9013 84.2987 40.1307 84.576 40.408C84.864 40.6853 85.0667 41.0693 85.184 41.56C85.2267 41.72 85.2267 41.9173 85.184 42.152C85.152 42.3867 85.104 42.6213 85.04 42.856C84.976 43.08 84.9067 43.272 84.832 43.432C84.7573 43.5067 84.6987 43.5867 84.656 43.672C84.6133 43.7467 84.592 43.784 84.592 43.784C84.592 43.8053 84.5493 43.8907 84.464 44.04C84.3787 44.1787 84.2773 44.3333 84.16 44.504C84.0427 44.6747 83.9307 44.824 83.824 44.952C83.7173 45.0373 83.5627 45.1547 83.36 45.304C83.168 45.464 82.9547 45.6187 82.72 45.768C82.496 45.9173 82.2827 46.0293 82.08 46.104C81.7813 46.232 81.4453 46.3173 81.072 46.36C80.7093 46.4133 80.3627 46.4187 80.032 46.376C79.7013 46.344 79.44 46.2693 79.248 46.152ZM80.4 39.512C80.4 39.512 80.4853 39.496 80.656 39.464C80.8373 39.4213 81.0347 39.3787 81.248 39.336C81.4613 39.2827 81.6213 39.2347 81.728 39.192C81.7813 39.16 81.856 39.1173 81.952 39.064C82.0587 39.0107 82.1653 38.9307 82.272 38.824C82.4213 38.6853 82.5813 38.5307 82.752 38.36C82.9227 38.1787 83.088 37.9867 83.248 37.784C83.4187 37.5813 83.5627 37.3627 83.68 37.128C83.9253 36.744 84.0587 36.4667 84.08 36.296C84.1013 36.1253 84.0427 35.9707 83.904 35.832C83.808 35.7147 83.6747 35.6293 83.504 35.576C83.3333 35.512 83.1467 35.48 82.944 35.48C82.752 35.4693 82.5653 35.4907 82.384 35.544C82.2453 35.5867 82.1387 35.64 82.064 35.704C81.9893 35.7573 81.952 35.8427 81.952 35.96C81.952 36.056 81.92 36.1573 81.856 36.264C81.8027 36.36 81.7493 36.4347 81.696 36.488C81.6853 36.5627 81.648 36.6373 81.584 36.712C81.5307 36.776 81.504 36.808 81.504 36.808C81.504 36.8507 81.4347 36.984 81.296 37.208C81.168 37.4213 81.0293 37.7307 80.88 38.136C80.688 38.5947 80.56 38.9253 80.496 39.128C80.432 39.3307 80.4 39.4587 80.4 39.512ZM87.367 45.56C86.9723 45.272 86.6577 45.0053 86.423 44.76C86.199 44.504 86.0763 44.2587 86.055 44.024C86.0337 43.832 86.0337 43.5707 86.055 43.24C86.087 42.9093 86.1243 42.584 86.167 42.264C86.2097 41.944 86.247 41.704 86.279 41.544C86.3323 41.4907 86.3537 41.4213 86.343 41.336C86.343 41.24 86.343 41.192 86.343 41.192C86.3323 41.1387 86.3697 41 86.455 40.776C86.5403 40.5413 86.6203 40.2427 86.695 39.88C86.9083 39.24 87.111 38.7067 87.303 38.28C87.5057 37.8427 87.703 37.4693 87.895 37.16C88.087 36.8507 88.279 36.568 88.471 36.312C88.9083 35.864 89.319 35.5067 89.703 35.24C90.0977 34.9733 90.4603 34.7653 90.791 34.616C91.0043 34.488 91.2017 34.3867 91.383 34.312C91.5643 34.2373 91.7137 34.2267 91.831 34.28C92.4283 34.408 92.935 34.6693 93.351 35.064C93.767 35.4587 94.0443 36.0293 94.183 36.776C94.2577 37.2453 94.3003 37.672 94.311 38.056C94.3323 38.4293 94.3057 38.8027 94.231 39.176C94.1563 39.5387 94.0177 39.9387 93.815 40.376C93.623 40.8133 93.351 41.3253 92.999 41.912C92.5617 42.776 92.0817 43.5013 91.559 44.088C91.047 44.664 90.5297 45.1013 90.007 45.4C89.495 45.6987 89.0043 45.8587 88.535 45.88C88.0763 45.912 87.687 45.8053 87.367 45.56ZM88.647 44.504C88.8923 44.472 89.0897 44.424 89.239 44.36C89.399 44.296 89.5643 44.1733 89.735 43.992C89.9057 43.8107 90.1457 43.544 90.455 43.192C90.7323 42.872 90.9617 42.6 91.143 42.376C91.335 42.152 91.495 41.9227 91.623 41.688C91.7617 41.4533 91.8897 41.176 92.007 40.856C92.135 40.5253 92.2737 40.104 92.423 39.592C92.5083 39.272 92.567 39.0373 92.599 38.888C92.6417 38.728 92.6683 38.5947 92.679 38.488C92.6897 38.3813 92.6897 38.2373 92.679 38.056C92.679 37.864 92.679 37.576 92.679 37.192C92.6683 37.0107 92.631 36.808 92.567 36.584C92.503 36.3493 92.4283 36.184 92.343 36.088C92.2363 35.9707 92.0763 35.8693 91.863 35.784C91.6497 35.6987 91.4257 35.7093 91.191 35.816C91.063 35.8693 90.903 35.9813 90.711 36.152C90.519 36.312 90.3217 36.504 90.119 36.728C89.9163 36.952 89.7243 37.176 89.543 37.4C89.3617 37.624 89.2177 37.8267 89.111 38.008C89.0043 38.1893 88.951 38.3173 88.951 38.392C88.951 38.392 88.9457 38.4187 88.935 38.472C88.935 38.5253 88.9137 38.5787 88.871 38.632C88.7323 38.7813 88.5883 39.0267 88.439 39.368C88.2897 39.7093 88.151 40.0987 88.023 40.536C87.895 40.9733 87.7883 41.4107 87.703 41.848C87.6177 42.2853 87.5643 42.68 87.543 43.032C87.543 43.2027 87.543 43.3467 87.543 43.464C87.543 43.5813 87.5537 43.688 87.575 43.784C87.607 43.8693 87.655 43.9653 87.719 44.072C87.783 44.1787 87.911 44.2853 88.103 44.392C88.3057 44.4987 88.487 44.536 88.647 44.504ZM100.373 46.392C100.33 46.392 100.25 46.3707 100.133 46.328C100.026 46.296 99.9465 46.248 99.8931 46.184C99.8185 46.1093 99.7651 46.0187 99.7331 45.912C99.7118 45.8053 99.7011 45.704 99.7011 45.608C99.7011 45.4907 99.7011 45.32 99.7011 45.096C99.7011 44.8827 99.6905 44.6747 99.6691 44.472C99.6691 44.1627 99.6638 43.8747 99.6531 43.608C99.6425 43.3413 99.6585 43.16 99.7011 43.064C99.6691 42.9147 99.6638 42.7547 99.6851 42.584C99.7171 42.4027 99.7331 42.264 99.7331 42.168L99.6691 41.736H98.8051C98.6025 41.768 98.2771 41.7733 97.8291 41.752C97.3811 41.72 96.8798 41.688 96.3251 41.656L96.1171 41.992C96.0851 42.0347 96.0265 42.12 95.9411 42.248C95.8558 42.376 95.7705 42.552 95.6851 42.776C95.6318 42.9147 95.5571 43.0907 95.4611 43.304C95.3758 43.5067 95.2798 43.7093 95.1731 43.912C95.0771 44.1147 94.9811 44.2853 94.8851 44.424C94.7145 44.7547 94.5598 44.9787 94.4211 45.096C94.2931 45.224 94.2025 45.288 94.1491 45.288C94.0531 45.288 93.9785 45.2827 93.9251 45.272C93.8718 45.2613 93.7918 45.2187 93.6851 45.144C93.4718 45.048 93.3331 44.8987 93.2691 44.696C93.2158 44.4933 93.2958 44.2373 93.5091 43.928C93.5625 43.8533 93.6105 43.7787 93.6531 43.704C93.6958 43.6293 93.7171 43.592 93.7171 43.592C93.7171 43.5707 93.7598 43.464 93.8451 43.272C93.9411 43.0693 94.0531 42.8453 94.1811 42.6C94.3091 42.344 94.4318 42.12 94.5491 41.928C94.6665 41.7253 94.7518 41.6133 94.8051 41.592C94.9971 41.3787 94.9811 41.176 94.7571 40.984C94.6825 40.952 94.6345 40.8613 94.6131 40.712C94.5918 40.5627 94.6291 40.424 94.7251 40.296C94.8211 40.1573 95.0025 40.0987 95.2691 40.12C95.3758 40.0667 95.4505 40.0293 95.4931 40.008C95.5465 39.9867 95.5731 39.9547 95.5731 39.912C95.5731 39.8907 95.5945 39.8267 95.6371 39.72C95.6905 39.6133 95.7545 39.4907 95.8291 39.352C95.9038 39.2027 95.9838 39.0587 96.0691 38.92C96.1545 38.7813 96.2345 38.664 96.3091 38.568C96.4265 38.2693 96.5171 38.072 96.5811 37.976C96.6451 37.8693 96.6985 37.768 96.7411 37.672C96.7945 37.6187 96.8691 37.5013 96.9651 37.32C97.0611 37.1387 97.1625 36.9627 97.2691 36.792C97.4185 36.6427 97.5518 36.4827 97.6691 36.312C97.7971 36.1307 97.9091 35.9813 98.0051 35.864C98.0585 35.7467 98.1331 35.6187 98.2291 35.48C98.3358 35.3413 98.4425 35.1973 98.5491 35.048C98.7518 34.824 98.9918 34.6427 99.2691 34.504C99.5571 34.3653 99.8078 34.344 100.021 34.44C100.266 34.5467 100.496 34.76 100.709 35.08C100.922 35.3893 101.045 35.768 101.077 36.216C101.109 36.4613 101.141 36.7387 101.173 37.048C101.216 37.3467 101.21 37.5707 101.157 37.72C101.157 37.912 101.152 38.1467 101.141 38.424C101.141 38.7013 101.157 38.9627 101.189 39.208C101.146 39.4107 101.13 39.64 101.141 39.896C101.152 40.1413 101.157 40.312 101.157 40.408C101.157 40.504 101.152 40.6587 101.141 40.872C101.13 41.0747 101.125 41.2507 101.125 41.4C101.114 41.8053 101.104 42.1413 101.093 42.408C101.093 42.6747 101.093 42.9307 101.093 43.176C101.104 43.4107 101.109 43.688 101.109 44.008C101.13 44.8507 101.072 45.448 100.933 45.8C100.805 46.1627 100.618 46.36 100.373 46.392ZM97.1411 40.408C97.1411 40.408 97.2478 40.3973 97.4611 40.376C97.6745 40.344 97.9305 40.3333 98.2291 40.344C98.5811 40.312 98.8691 40.3067 99.0931 40.328C99.3171 40.3387 99.4505 40.3333 99.4931 40.312C99.6105 40.3227 99.6905 40.2747 99.7331 40.168C99.7758 40.0613 99.7971 39.9227 99.7971 39.752C99.7758 39.5173 99.7545 39.224 99.7331 38.872C99.7225 38.5093 99.7118 38.1467 99.7011 37.784C99.6905 37.4107 99.6905 37.0907 99.7011 36.824C99.7011 36.6213 99.6851 36.4187 99.6531 36.216C99.6211 36.0027 99.6051 35.896 99.6051 35.896C99.5838 35.864 99.5198 35.9173 99.4131 36.056C99.3171 36.184 99.2051 36.344 99.0771 36.536C98.9491 36.728 98.8318 36.92 98.7251 37.112C98.6185 37.2933 98.5385 37.4267 98.4851 37.512C98.4425 37.5653 98.3625 37.704 98.2451 37.928C98.1278 38.152 97.9945 38.392 97.8451 38.648C97.4505 39.2773 97.2105 39.7147 97.1251 39.96C97.0398 40.2053 97.0451 40.3547 97.1411 40.408ZM102.629 45.528C102.629 45.5813 102.602 45.5813 102.549 45.528C102.495 45.4853 102.41 45.4213 102.293 45.336C102.197 45.24 102.085 45.1173 101.957 44.968C101.829 44.8187 101.77 44.6427 101.781 44.44C101.834 44.1947 101.93 43.8373 102.069 43.368C102.207 42.888 102.373 42.3867 102.565 41.864C102.586 41.6613 102.618 41.4907 102.661 41.352C102.714 41.2133 102.741 41.144 102.741 41.144C102.751 41.1227 102.773 41.0907 102.805 41.048C102.837 40.9947 102.885 40.9573 102.949 40.936C103.002 40.8933 103.023 40.8133 103.013 40.696C103.002 40.568 102.991 40.488 102.981 40.456C103.023 40.2 103.119 39.8533 103.269 39.416C103.418 38.968 103.594 38.4987 103.797 38.008C103.999 37.5067 104.191 37.0427 104.373 36.616C104.426 36.52 104.474 36.4293 104.517 36.344C104.559 36.248 104.581 36.2 104.581 36.2C104.549 36.1573 104.511 36.1147 104.469 36.072C104.426 36.0293 104.378 35.9707 104.325 35.896C104.239 35.7787 104.175 35.6507 104.133 35.512C104.101 35.3627 104.138 35.2293 104.245 35.112C104.277 35.0587 104.335 34.9893 104.421 34.904C104.517 34.8187 104.618 34.7387 104.725 34.664C104.97 34.5253 105.21 34.4187 105.445 34.344C105.69 34.2587 105.909 34.2427 106.101 34.296C106.442 34.3067 106.698 34.3333 106.869 34.376C107.05 34.4187 107.194 34.4773 107.301 34.552C107.365 34.5947 107.418 34.6267 107.461 34.648C107.514 34.6693 107.583 34.68 107.669 34.68C107.85 34.7013 108.063 34.7707 108.309 34.888C108.554 34.9947 108.773 35.1067 108.965 35.224C109.157 35.3413 109.269 35.4213 109.301 35.464C109.514 35.6453 109.701 35.8907 109.861 36.2C110.021 36.5093 110.117 36.8667 110.149 37.272C110.149 37.5173 110.138 37.736 110.117 37.928C110.095 38.1093 110.047 38.2907 109.973 38.472C109.898 38.6427 109.775 38.8453 109.605 39.08C109.285 39.5813 108.885 40.0773 108.405 40.568C107.935 41.0587 107.338 41.5067 106.613 41.912C106.591 41.9547 106.565 42.0027 106.533 42.056C106.511 42.0987 106.501 42.12 106.501 42.12C106.501 42.2053 106.554 42.3173 106.661 42.456C106.778 42.5947 106.922 42.744 107.093 42.904C107.263 43.0533 107.439 43.2027 107.621 43.352C107.813 43.5013 107.983 43.6347 108.133 43.752C108.293 43.8587 108.41 43.9333 108.485 43.976C108.623 43.9333 108.735 43.9173 108.821 43.928C108.906 43.928 108.97 43.9653 109.013 44.04C109.055 44.1147 109.082 44.2427 109.093 44.424C109.082 44.5627 109.045 44.696 108.981 44.824C108.917 44.952 108.869 45.0267 108.837 45.048C108.751 45.112 108.671 45.1867 108.597 45.272C108.533 45.3573 108.453 45.4107 108.357 45.432C108.261 45.4533 108.127 45.4053 107.957 45.288C107.477 45.1387 107.045 44.856 106.661 44.44C106.287 44.024 105.877 43.576 105.429 43.096C105.333 42.9787 105.253 42.8987 105.189 42.856C105.125 42.8027 105.055 42.776 104.981 42.776C104.906 42.776 104.794 42.792 104.645 42.824C104.559 42.8347 104.474 42.8133 104.389 42.76C104.314 42.7067 104.234 42.6373 104.149 42.552C104.117 42.4987 104.074 42.4667 104.021 42.456C103.978 42.4453 103.941 42.472 103.909 42.536C103.887 42.6 103.845 42.712 103.781 42.872C103.727 43.0213 103.669 43.1707 103.605 43.32C103.551 43.4693 103.498 43.5867 103.445 43.672C103.466 43.768 103.439 43.976 103.365 44.296C103.29 44.6053 103.194 44.9307 103.077 45.272C103.045 45.3573 102.997 45.432 102.933 45.496C102.869 45.5707 102.821 45.5867 102.789 45.544C102.746 45.4907 102.709 45.464 102.677 45.464C102.655 45.464 102.639 45.4853 102.629 45.528ZM105.557 40.904C105.866 40.808 106.17 40.664 106.469 40.472C106.778 40.2693 107.066 40.0293 107.333 39.752C107.599 39.4747 107.818 39.1813 107.989 38.872C108.074 38.808 108.154 38.7067 108.229 38.568C108.303 38.4187 108.367 38.328 108.421 38.296C108.517 38.1787 108.581 38.088 108.613 38.024C108.655 37.96 108.65 37.88 108.597 37.784C108.597 37.6987 108.607 37.6187 108.629 37.544C108.661 37.4587 108.687 37.3787 108.709 37.304C108.762 37.1547 108.762 37.0213 108.709 36.904C108.666 36.7867 108.511 36.6533 108.245 36.504C108.149 36.44 108.047 36.3867 107.941 36.344C107.845 36.2907 107.738 36.2427 107.621 36.2C107.514 36.1467 107.391 36.088 107.253 36.024C107.082 36.024 106.906 35.9867 106.725 35.912C106.554 35.8267 106.421 35.7893 106.325 35.8C106.271 35.8107 106.218 35.8747 106.165 35.992C106.122 36.0987 106.074 36.2533 106.021 36.456C105.978 36.6267 105.925 36.7813 105.861 36.92C105.807 37.048 105.738 37.1333 105.653 37.176C105.642 37.2187 105.594 37.368 105.509 37.624C105.423 37.88 105.322 38.184 105.205 38.536C105.087 38.8773 104.97 39.224 104.853 39.576C104.735 39.9173 104.639 40.2107 104.565 40.456C104.49 40.7013 104.453 40.8453 104.453 40.888C104.453 40.9093 104.485 40.9467 104.549 41C104.623 41.0533 104.687 41.0853 104.741 41.096C104.741 41.096 104.751 41.0853 104.773 41.064C104.794 41.0427 104.815 41.0373 104.837 41.048L105.189 41.224L105.557 40.904ZM110.118 45.496C110 45.3893 109.888 45.304 109.782 45.24C109.686 45.176 109.616 45.0907 109.574 44.984C109.542 44.8773 109.552 44.7173 109.606 44.504C109.627 44.3547 109.664 44.1573 109.718 43.912C109.782 43.656 109.846 43.384 109.91 43.096C109.984 42.808 110.059 42.5413 110.134 42.296C110.208 42.04 110.267 41.8427 110.31 41.704C110.32 41.6187 110.347 41.5013 110.39 41.352C110.443 41.192 110.502 41.0587 110.566 40.952L110.742 40.408C110.774 40.3013 110.827 40.1413 110.902 39.928C110.987 39.7147 111.067 39.5173 111.142 39.336C111.216 39.144 111.254 39.048 111.254 39.048C111.36 38.8347 111.488 38.552 111.638 38.2C111.798 37.848 111.963 37.48 112.134 37.096C112.304 36.712 112.459 36.3653 112.598 36.056C112.747 35.7467 112.854 35.5333 112.918 35.416C112.939 35.32 112.923 35.2613 112.87 35.24C112.827 35.2187 112.651 35.1973 112.342 35.176C112.171 35.1867 111.942 35.2453 111.654 35.352C111.376 35.448 111.152 35.5227 110.982 35.576C110.768 35.64 110.624 35.6133 110.549 35.496C110.486 35.3787 110.48 35.224 110.534 35.032C110.598 34.84 110.71 34.6587 110.87 34.488C111.03 34.3173 111.232 34.2107 111.478 34.168C111.627 34.1253 111.84 34.088 112.118 34.056C112.395 34.024 112.667 33.9973 112.934 33.976C113.2 33.944 113.398 33.928 113.526 33.928C114.272 33.9067 114.944 33.9653 115.542 34.104C116.139 34.2427 116.747 34.504 117.366 34.888C117.526 34.9947 117.691 35.1493 117.862 35.352C118.043 35.544 118.208 35.736 118.358 35.928C118.507 36.12 118.608 36.264 118.662 36.36C118.683 36.4027 118.731 36.4933 118.806 36.632C118.891 36.7707 118.96 36.9307 119.014 37.112C119.131 37.368 119.206 37.688 119.238 38.072C119.28 38.456 119.286 38.8453 119.254 39.24C119.232 39.624 119.174 39.9707 119.078 40.28C118.918 40.76 118.672 41.272 118.342 41.816C118.022 42.3493 117.659 42.84 117.253 43.288C116.848 43.7253 116.448 44.0507 116.054 44.264C115.904 44.3387 115.76 44.408 115.622 44.472C115.483 44.536 115.355 44.584 115.238 44.616C115.206 44.6587 115.078 44.7333 114.854 44.84C114.63 44.9467 114.368 45.064 114.07 45.192C113.771 45.32 113.488 45.4373 113.222 45.544C112.966 45.6613 112.779 45.7467 112.661 45.8C112.544 45.7893 112.443 45.8 112.358 45.832C112.283 45.8747 112.23 45.912 112.198 45.944C112.048 45.9867 111.888 46.0187 111.718 46.04C111.558 46.0613 111.355 46.0667 111.11 46.056L110.422 46.088L110.118 45.496ZM111.75 44.52C111.899 44.5307 112.086 44.4827 112.31 44.376C112.534 44.2693 112.736 44.1787 112.918 44.104C113.035 44.0613 113.126 44.04 113.19 44.04C113.264 44.04 113.302 44.04 113.302 44.04C113.344 44.04 113.435 44.0133 113.574 43.96C113.723 43.896 113.894 43.8213 114.086 43.736C114.278 43.64 114.47 43.5493 114.662 43.464C114.864 43.368 115.035 43.288 115.174 43.224C115.291 43.096 115.44 42.9413 115.622 42.76C115.814 42.5787 115.952 42.4347 116.038 42.328C116.176 42.2533 116.288 42.1467 116.374 42.008C116.47 41.8693 116.55 41.7893 116.614 41.768C116.667 41.768 116.742 41.6667 116.838 41.464C116.944 41.2613 117.067 41.0587 117.206 40.856C117.366 40.5787 117.483 40.36 117.558 40.2C117.643 40.0293 117.696 39.8747 117.718 39.736C117.75 39.5867 117.771 39.4107 117.782 39.208C117.792 38.7707 117.787 38.424 117.766 38.168C117.744 37.912 117.702 37.6933 117.638 37.512C117.574 37.32 117.478 37.128 117.35 36.936C117.126 36.6373 116.923 36.4133 116.742 36.264C116.571 36.1147 116.411 36.0027 116.262 35.928C116.123 35.9067 115.984 35.8693 115.846 35.816C115.707 35.752 115.627 35.7147 115.606 35.704C115.563 35.6293 115.456 35.5707 115.286 35.528C115.115 35.4747 114.934 35.4373 114.742 35.416C114.56 35.384 114.416 35.368 114.31 35.368C114.278 35.4107 114.256 35.448 114.246 35.48C114.246 35.5013 114.235 35.5867 114.214 35.736C114.214 35.7893 114.176 35.9227 114.102 36.136C114.027 36.3493 113.936 36.568 113.83 36.792C113.723 37.016 113.622 37.1653 113.526 37.24C113.504 37.2933 113.446 37.4267 113.35 37.64C113.264 37.8533 113.152 38.1253 113.014 38.456C112.886 38.7867 112.747 39.1493 112.598 39.544C112.448 39.928 112.31 40.3227 112.182 40.728C112.118 40.8667 112.038 40.9893 111.942 41.096C111.856 41.192 111.814 41.24 111.814 41.24C111.803 41.3147 111.792 41.3893 111.782 41.464C111.771 41.5387 111.744 41.6133 111.702 41.688C111.584 42.1467 111.488 42.5413 111.414 42.872C111.339 43.192 111.254 43.5493 111.158 43.944L110.966 44.488L111.75 44.52Z" fill="black"/>
</svg>
